<svg width="128" height="128" viewBox="0 0 128 128" fill="none" xmlns="http://www.w3.org/2000/svg">
  <rect width="128" height="128" rx="36" fill="url(#paint0_linear)"/>
  <circle cx="96" cy="24" r="24" fill="white" fill-opacity="0.22"/>
  <circle cx="22" cy="103" r="26" fill="white" fill-opacity="0.16"/>
  <path d="M75.6 82.2C70.4 86.3 63.9 88.5 56.6 88.5C38.8 88.5 26.5 76 26.5 64.2C26.5 52.3 38.8 39.5 56.7 39.5C64 39.5 70.5 41.8 75.6 45.9L66.7 56.5C63.9 54.3 60.7 53.1 56.8 53.1C47.9 53.1 41.7 58.4 41.7 64.2C41.7 69.9 47.9 75.1 56.8 75.1C60.7 75.1 64 73.9 66.7 71.7L75.6 82.2Z" fill="white"/>
  <path d="M77.2 64L94.4 40.8H111.3L92.6 64L112 87.2H94.5L77.2 64Z" fill="white" fill-opacity="0.92"/>
  <defs>
    <linearGradient id="paint0_linear" x1="10" y1="8" x2="118" y2="121" gradientUnits="userSpaceOnUse">
      <stop stop-color="#FF4FA3"/>
      <stop offset="1" stop-color="#FB7185"/>
    </linearGradient>
  </defs>
</svg>
