<svg width="188" height="36" viewBox="0 0 188 36" fill="none" xmlns="http://www.w3.org/2000/svg">
<g clip-path="url(#clip0_2008_4149)">
<path d="M31.3816 6.60652H5.04107C4.65583 6.60652 4.28637 6.45349 4.01396 6.18108C3.74156 5.90867 3.58852 5.53921 3.58852 5.15397C3.58852 4.97898 3.65804 4.81115 3.78178 4.68741C3.90552 4.56366 4.07335 4.49415 4.24835 4.49415H27.8538C28.0292 4.49415 28.1974 4.42447 28.3215 4.30044C28.4455 4.1764 28.5152 4.00818 28.5152 3.83277V1.45307C28.5162 1.25096 28.475 1.05086 28.3942 0.865605C28.3134 0.680347 28.1948 0.514013 28.0459 0.377263C27.8971 0.240512 27.7214 0.136362 27.5299 0.0714854C27.3385 0.00660893 27.1357 -0.0175623 26.9344 0.000520709L3.01368 2.11908C2.19033 2.19027 1.42364 2.56774 0.865138 3.17688C0.306637 3.78602 -0.00303359 4.58252 -0.00266997 5.40894V28.3994C-0.00266997 28.833 0.0827447 29.2624 0.248697 29.6631C0.41465 30.0637 0.65789 30.4278 0.96453 30.7344C1.27117 31.041 1.63521 31.2843 2.03585 31.4502C2.43649 31.6162 2.8659 31.7016 3.29956 31.7016H31.3816C31.8153 31.7016 32.2447 31.6162 32.6453 31.4502C33.046 31.2843 33.41 31.041 33.7167 30.7344C34.0233 30.4278 34.2665 30.0637 34.4325 29.6631C34.5984 29.2624 34.6839 28.833 34.6839 28.3994V9.90875C34.6839 9.03294 34.3359 8.19301 33.7167 7.57372C33.0974 6.95443 32.2574 6.60652 31.3816 6.60652ZM23.2443 23.881C23.1509 24.7046 22.8369 25.4876 22.3354 26.1475C21.8338 26.8073 21.1633 27.3195 20.3948 27.6298C19.4285 28.0213 18.389 28.199 17.3475 28.1506C15.9016 28.1028 14.4837 27.7383 13.1939 27.0828C12.6031 26.7586 12.0452 26.3777 11.5281 25.9455C11.4106 25.8466 11.3504 25.7601 11.4632 25.6009C11.576 25.4417 12.0504 24.7247 12.1292 24.6166C12.1507 24.5818 12.1799 24.5525 12.2145 24.5308C12.2492 24.5092 12.2884 24.4958 12.329 24.4918C12.3697 24.4878 12.4107 24.4932 12.449 24.5076C12.4872 24.522 12.5216 24.545 12.5495 24.5748L12.7566 24.7294C13.9928 25.689 15.5829 26.4091 17.3506 26.4771C19.5805 26.4477 21.1983 25.4541 21.4873 23.9166C21.8056 22.2168 20.4535 20.7673 17.8482 19.9561C17.02 19.698 14.9385 18.8744 14.5537 18.6472C12.7396 17.5913 11.8933 16.2088 12.0148 14.4997C12.2049 12.1339 14.4069 10.3615 17.21 10.3538C18.4776 10.3575 19.7316 10.6144 20.8986 11.1094C21.4009 11.3287 21.8837 11.5903 22.3418 11.8913C22.3774 11.91 22.4086 11.936 22.4334 11.9676C22.4581 11.9993 22.4758 12.0359 22.4853 12.0749C22.4948 12.1139 22.4959 12.1546 22.4885 12.194C22.4811 12.2335 22.4653 12.271 22.4423 12.3039C22.331 12.4878 22.0019 13.0008 21.869 13.2141C21.7716 13.3686 21.6526 13.3686 21.4827 13.2697C20.2278 12.4328 18.7569 11.9786 17.2486 11.9624C15.3341 11.9964 13.8908 13.126 13.795 14.6805C13.7703 16.0713 14.8411 17.0942 17.1127 17.8699C21.8041 19.3627 23.5811 21.1212 23.2443 23.881Z" fill="#EE4D2D"/>
<path d="M50.4377 16.0852C47.7598 15.226 46.5267 14.0949 46.5251 12.5311C46.6024 10.8174 48.2094 9.51008 50.413 9.42664C52.1603 9.41939 53.8705 9.93083 55.3269 10.8962C55.721 11.1357 55.9157 11.0507 56.1459 10.7417C56.1706 10.7015 56.2556 10.5794 56.5369 10.1776C56.8027 9.79596 56.9062 9.64761 56.9325 9.60126C57.1256 9.24121 57.1256 9.04805 56.73 8.76836C56.1511 8.40264 55.5421 8.08679 54.9097 7.8242C53.4514 7.23696 51.8906 6.94645 50.3187 6.96967C46.794 7.04694 44.0357 9.33238 43.8533 12.3426C43.7375 14.5183 44.8485 16.266 47.1525 17.5516C47.8077 17.8962 50.1549 18.7755 51.2304 19.0969C54.3009 19.9932 55.8739 21.6249 55.5572 23.5272C55.262 25.2579 53.4309 26.423 50.8333 26.5033C48.9357 26.4647 47.032 25.7693 45.3832 24.5362L45.2549 24.4404L45.1266 24.3462C44.765 24.0974 44.5085 24.0974 44.2536 24.4713C44.2443 24.4868 44.045 24.7896 43.8456 25.0894C43.6123 25.4402 43.5118 25.5932 43.4578 25.6782C43.2445 25.9872 43.2816 26.1634 43.5922 26.4245C44.2445 26.9505 44.9468 27.4111 45.6891 27.7998C47.3005 28.5847 49.0644 29.0067 50.8565 29.036C52.1589 29.0751 53.4543 28.831 54.6532 28.3206C56.6729 27.4228 57.9616 25.6704 58.1872 23.5148C58.5503 20.0086 56.2603 17.8282 50.4377 16.0852Z" fill="#EE4D2D"/>
<path d="M66.7711 15.2121C65.3731 15.2134 64.0124 15.6635 62.8894 16.4962V7.45642C62.8894 7.10255 62.7503 6.96657 62.3996 6.96657H60.7585C60.3691 6.96657 60.2686 7.09637 60.2686 7.45642V28.4596C60.2686 28.8058 60.3691 28.9495 60.7585 28.9495H62.3949C62.7503 28.9495 62.8848 28.795 62.8848 28.4596V21.6002C62.8848 19.2576 64.6356 17.7819 66.7711 17.7819C68.9067 17.7819 70.6574 19.2576 70.6574 21.6157V28.4596C70.6574 28.8568 70.7548 28.9495 71.1473 28.9495H72.7791C73.1685 28.9495 73.2705 28.8568 73.2705 28.4596V21.5956C73.2566 18.0801 70.3237 15.2121 66.7711 15.2121Z" fill="#EE4D2D"/>
<path d="M82.3816 15.2275C78.4984 15.2275 75.3491 18.3181 75.3491 22.1179C75.3491 25.9177 78.4984 29.0097 82.3816 29.0097C86.2649 29.0097 89.4126 25.9192 89.4126 22.1179C89.4126 18.3165 86.2633 15.2275 82.3816 15.2275ZM82.3816 26.4755C79.9216 26.4755 77.9282 24.5223 77.9282 22.1148C77.9282 19.7073 79.9216 17.754 82.3816 17.754C84.8417 17.754 86.8335 19.7073 86.8335 22.1148C86.8335 24.5223 84.8324 26.4755 82.3801 26.4755H82.3816Z" fill="#EE4D2D"/>
<path d="M135.54 23.0451H135.577C135.788 23.0331 135.986 22.9403 136.13 22.786C136.274 22.6317 136.352 22.4278 136.35 22.2168C136.35 22.1952 136.35 22.1766 136.35 22.1581V22.1071C136.35 18.3026 133.367 15.2168 129.683 15.2168C126 15.2168 123.017 18.3073 123.017 22.1071C123.017 22.3906 123.034 22.6739 123.068 22.9554L123.077 23.0451C123.255 24.4024 123.842 25.6732 124.762 26.6872L124.77 26.695C125.813 27.833 127.199 28.5987 128.718 28.8753L128.838 28.8985L129.019 28.9279C131.131 29.1828 132.91 28.8398 134.352 28.1135C134.704 27.9381 135.041 27.7312 135.356 27.4954C135.455 27.4212 135.54 27.3517 135.61 27.2899C135.653 27.2528 135.682 27.225 135.698 27.2095C136.07 26.8248 136.087 26.6594 135.865 26.3117C135.348 25.4897 135.058 25.0879 135.058 25.0879C134.857 24.836 134.675 24.7788 134.417 25.006C134.372 25.0462 134.33 25.0724 134.308 25.0956C132.763 26.4632 130.754 26.7321 128.988 26.3643C128.641 26.2722 128.302 26.1485 127.977 25.995C127.392 25.713 126.879 25.301 126.478 24.7906C126.076 24.2802 125.796 23.6847 125.66 23.0497H135.54V23.0451ZM125.82 20.5185C126.33 18.8512 127.875 17.7371 129.683 17.7371C130.542 17.7518 131.376 18.0251 132.077 18.5213C132.778 19.0175 133.313 19.7136 133.612 20.5185H125.82Z" fill="#EE4D2D"/>
<path d="M98.4848 15.1904C96.8915 15.188 95.3466 15.7379 94.1132 16.7465V15.6803C94.1132 15.3094 94.0112 15.1904 93.6218 15.1904H92.0658C91.6764 15.1904 91.5759 15.3001 91.5759 15.6803V35.5106C91.5759 35.8707 91.6764 36.0005 92.0658 36.0005H93.6218C94.0112 36.0005 94.1132 35.8738 94.1132 35.5106V27.4196C94.9681 28.1225 95.9795 28.6093 97.062 28.8392C98.1446 29.069 99.2666 29.0351 100.333 28.7402C101.4 28.4454 102.38 27.8982 103.191 27.145C104.002 26.3918 104.619 25.4546 104.992 24.4125C105.364 23.3704 105.481 22.2539 105.331 21.1574C105.182 20.0609 104.77 19.0164 104.132 18.1122C103.494 17.2079 102.648 16.4704 101.665 15.9619C100.682 15.4534 99.5915 15.1888 98.4848 15.1904ZM98.4848 26.4399C97.3461 26.4412 96.252 25.9976 95.4357 25.2038C94.6194 24.41 94.1454 23.3287 94.1148 22.1905V21.9664C94.1348 21.1064 94.4082 20.2713 94.9007 19.566C95.3931 18.8606 96.0828 18.3162 96.8832 18.0009C97.6837 17.6857 98.5593 17.6136 99.4005 17.7938C100.242 17.9739 101.011 18.3982 101.612 19.0136C102.213 19.629 102.62 20.4081 102.78 21.2533C102.94 22.0985 102.848 22.9722 102.514 23.7651C102.18 24.5579 101.62 25.2346 100.903 25.7104C100.186 26.1863 99.3451 26.44 98.4848 26.4399Z" fill="#EE4D2D"/>
<path d="M120.911 22.1071C120.911 18.3026 117.927 15.2168 114.245 15.2168C110.562 15.2168 107.578 18.3073 107.578 22.1071C107.578 22.3906 107.594 22.6739 107.628 22.9554L107.639 23.0451C107.817 24.4031 108.406 25.6741 109.328 26.6872V26.695C110.372 27.8336 111.76 28.5993 113.28 28.8753L113.401 28.8985L113.58 28.9279C115.693 29.1828 117.471 28.8398 118.913 28.1135C119.266 27.9381 119.602 27.7312 119.917 27.4954C120.016 27.4212 120.101 27.3517 120.172 27.2899C120.214 27.2528 120.243 27.225 120.259 27.2095C120.631 26.8248 120.648 26.6594 120.426 26.3117C119.91 25.4897 119.621 25.0879 119.621 25.0879C119.418 24.836 119.236 24.7788 118.978 25.006C118.933 25.0462 118.891 25.0724 118.87 25.0956C117.324 26.4632 115.316 26.7321 113.551 26.3643C113.203 26.2722 112.864 26.1485 112.539 25.995C111.954 25.713 111.441 25.301 111.039 24.7906C110.637 24.2802 110.357 23.6847 110.221 23.0497H120.138C120.349 23.0378 120.547 22.945 120.691 22.7907C120.835 22.6364 120.914 22.4324 120.911 22.2214C120.911 22.1998 120.911 22.1813 120.911 22.1627C120.912 22.1442 120.912 22.1256 120.911 22.1071ZM110.386 20.5185C110.898 18.8512 112.443 17.7371 114.249 17.7371C115.108 17.7515 115.942 18.0248 116.643 18.521C117.344 19.0173 117.879 19.7135 118.177 20.5185H110.386Z" fill="#EE4D2D"/>
<path fill-rule="evenodd" clip-rule="evenodd" d="M140.556 28.2649V7.67273C140.556 7.46781 140.637 7.27129 140.782 7.1264C140.927 6.9815 141.124 6.9001 141.329 6.9001H148.282C152.196 6.95109 155.381 10.1451 155.381 14.0083C155.381 17.8715 152.195 21.064 148.273 21.1165H143.243V28.268C143.243 28.4729 143.162 28.6694 143.017 28.8143C142.872 28.9592 142.675 29.0406 142.471 29.0406H141.322C141.118 29.039 140.923 28.9564 140.779 28.8111C140.635 28.6657 140.555 28.4693 140.556 28.2649ZM143.243 18.3134H148.25C148.825 18.3152 149.396 18.2033 149.928 17.984C150.46 17.7647 150.944 17.4423 151.351 17.0355C151.759 16.6329 152.083 16.1531 152.303 15.624C152.524 15.095 152.637 14.5274 152.635 13.9542C152.632 12.7964 152.17 11.687 151.35 10.8695C150.531 10.052 149.42 9.59308 148.262 9.59349H143.243V18.3134Z" fill="#EE4D2D"/>
<path fill-rule="evenodd" clip-rule="evenodd" d="M173.107 35.2109L178.37 26.1665L172.067 15.8487C172.024 15.7785 172.001 15.6981 171.999 15.6159C171.998 15.5336 172.018 15.4525 172.059 15.3807C172.099 15.309 172.158 15.2493 172.229 15.2077C172.299 15.1661 172.38 15.1442 172.462 15.1441H175.014L180.084 23.3649L184.979 15.1441H187.334C187.416 15.1443 187.496 15.166 187.566 15.207C187.637 15.2481 187.695 15.307 187.736 15.3779C187.776 15.4487 187.797 15.529 187.797 15.6106C187.796 15.6922 187.774 15.7722 187.733 15.8426L175.87 35.9078H173.507C173.426 35.9077 173.346 35.8862 173.275 35.8453C173.205 35.8045 173.146 35.7458 173.105 35.6751C173.065 35.6044 173.044 35.5243 173.044 35.4428C173.044 35.3613 173.066 35.2813 173.107 35.2109Z" fill="#EE4D2D"/>
<path fill-rule="evenodd" clip-rule="evenodd" d="M167.195 28.1599V26.97L166.802 27.2961C165.52 28.357 163.907 28.9359 162.242 28.9325C158.379 28.9325 155.237 25.842 155.237 22.0376C155.237 18.2949 158.381 15.2492 162.242 15.2492C163.907 15.2458 165.52 15.8247 166.802 16.8856L167.195 17.2117V16.0218C167.195 15.8169 167.276 15.6204 167.421 15.4755C167.566 15.3306 167.762 15.2492 167.967 15.2492H169.57V28.9325H167.967C167.762 28.9325 167.566 28.8511 167.421 28.7062C167.276 28.5613 167.195 28.3648 167.195 28.1599ZM162.224 17.8159C159.796 17.8159 157.821 19.7135 157.821 22.0453C157.821 24.3771 159.83 26.3797 162.224 26.3797C164.617 26.3797 166.626 24.3956 166.626 22.0453C166.626 19.6949 164.643 17.8159 162.216 17.8159H162.224Z" fill="#EE4D2D"/>
</g>
<defs>
<clipPath id="clip0_2008_4149">
<rect width="187.8" height="36" fill="white"/>
</clipPath>
</defs>
</svg>
