<svg xmlns="http://www.w3.org/2000/svg" viewBox="0 0 160 100" role="img" aria-label="QRIS">
  <rect width="160" height="100" rx="24" fill="#ffffff"/>
  <rect x="12" y="12" width="136" height="76" rx="18" fill="#111827"/>
  <rect x="24" y="22" width="22" height="22" rx="4" fill="#ffffff"/>
  <rect x="30" y="28" width="10" height="10" rx="2" fill="#111827"/>
  <rect x="114" y="22" width="22" height="22" rx="4" fill="#ffffff"/>
  <rect x="120" y="28" width="10" height="10" rx="2" fill="#111827"/>
  <rect x="24" y="56" width="22" height="22" rx="4" fill="#ffffff"/>
  <rect x="30" y="62" width="10" height="10" rx="2" fill="#111827"/>
  <rect x="56" y="24" width="8" height="8" rx="1" fill="#ffffff"/>
  <rect x="70" y="24" width="14" height="8" rx="1" fill="#ffffff"/>
  <rect x="91" y="24" width="8" height="8" rx="1" fill="#ffffff"/>
  <rect x="56" y="40" width="18" height="8" rx="1" fill="#ffffff"/>
  <rect x="82" y="40" width="10" height="8" rx="1" fill="#ffffff"/>
  <rect x="100" y="40" width="8" height="8" rx="1" fill="#ffffff"/>
  <rect x="58" y="58" width="12" height="8" rx="1" fill="#ffffff"/>
  <rect x="78" y="58" width="8" height="8" rx="1" fill="#ffffff"/>
  <rect x="94" y="58" width="14" height="8" rx="1" fill="#ffffff"/>
  <rect x="116" y="58" width="8" height="20" rx="1" fill="#ffffff"/>
  <rect x="58" y="74" width="8" height="8" rx="1" fill="#ffffff"/>
  <rect x="74" y="74" width="24" height="8" rx="1" fill="#ffffff"/>
  <text x="80" y="55" text-anchor="middle" font-family="Arial, Helvetica, sans-serif" font-size="21" font-weight="900" fill="#ffffff">QRIS</text>
</svg>
